<?xml version="1.0" encoding="utf-8" standalone="no"?>
<!DOCTYPE svg PUBLIC "-//W3C//DTD SVG 1.1//EN"
  "http://www.w3.org/Graphics/SVG/1.1/DTD/svg11.dtd">
<svg xmlns:xlink="http://www.w3.org/1999/xlink" width="460.8pt" height="345.6pt" viewBox="0 0 460.8 345.6" xmlns="http://www.w3.org/2000/svg" version="1.1">
 <metadata>
  <rdf:RDF xmlns:dc="http://purl.org/dc/elements/1.1/" xmlns:cc="http://creativecommons.org/ns#" xmlns:rdf="http://www.w3.org/1999/02/22-rdf-syntax-ns#">
   <cc:Work>
    <dc:type rdf:resource="http://purl.org/dc/dcmitype/StillImage"/>
    <dc:date>2024-05-05T21:16:51.966729</dc:date>
    <dc:format>image/svg+xml</dc:format>
    <dc:creator>
     <cc:Agent>
      <dc:title>Matplotlib v3.7.2, https://matplotlib.org/</dc:title>
     </cc:Agent>
    </dc:creator>
   </cc:Work>
  </rdf:RDF>
 </metadata>
 <defs>
  <style type="text/css">*{stroke-linejoin: round; stroke-linecap: butt}</style>
 </defs>
 <g id="figure_1">
  <g id="patch_1">
   <path d="M 0 345.6 
L 460.8 345.6 
L 460.8 0 
L 0 0 
z
" style="fill: #ffffff"/>
  </g>
  <g id="axes_1">
   <g id="patch_2">
    <path d="M 57.6 307.584 
L 414.72 307.584 
L 414.72 41.472 
L 57.6 41.472 
z
" style="fill: #ffffff"/>
   </g>
   <g id="matplotlib.axis_1">
    <g id="xtick_1">
     <g id="line2d_1">
      <defs>
       <path id="mbe87d770e6" d="M 0 0 
L 0 3.5 
" style="stroke: #000000; stroke-width: 0.8"/>
      </defs>
      <g>
       <use xlink:href="#mbe87d770e6" x="73.832727" y="307.584" style="stroke: #000000; stroke-width: 0.8"/>
      </g>
     </g>
     <g id="text_1">
      <!-- 0 -->
      <g transform="translate(71.332727 321.459) scale(0.1 -0.1)">
       <defs>
        <path id="SimHei-30" d="M 225 2537 
Q 250 3200 412 3587 
Q 575 3975 875 4225 
Q 1175 4475 1612 4475 
Q 2050 4475 2375 4112 
Q 2700 3750 2800 3200 
Q 2900 2650 2862 1937 
Q 2825 1225 2612 775 
Q 2400 325 1975 150 
Q 1550 -25 1125 187 
Q 700 400 525 750 
Q 350 1100 275 1487 
Q 200 1875 225 2537 
z
M 750 2687 
Q 675 2000 800 1462 
Q 925 925 1212 700 
Q 1500 475 1800 612 
Q 2100 750 2237 1162 
Q 2375 1575 2375 2062 
Q 2375 2550 2337 2950 
Q 2300 3350 2112 3675 
Q 1925 4000 1612 4012 
Q 1300 4025 1062 3700 
Q 825 3375 750 2687 
z
" transform="scale(0.015625)"/>
       </defs>
       <use xlink:href="#SimHei-30"/>
      </g>
     </g>
    </g>
    <g id="xtick_2">
     <g id="line2d_2">
      <g>
       <use xlink:href="#mbe87d770e6" x="120.884111" y="307.584" style="stroke: #000000; stroke-width: 0.8"/>
      </g>
     </g>
     <g id="text_2">
      <!-- 1 -->
      <g transform="translate(118.384111 321.459) scale(0.1 -0.1)">
       <defs>
        <path id="SimHei-31" d="M 1400 3600 
Q 1075 3275 575 2975 
L 575 3450 
Q 1200 3875 1600 4450 
L 1900 4450 
L 1900 150 
L 1400 150 
L 1400 3600 
z
" transform="scale(0.015625)"/>
       </defs>
       <use xlink:href="#SimHei-31"/>
      </g>
     </g>
    </g>
    <g id="xtick_3">
     <g id="line2d_3">
      <g>
       <use xlink:href="#mbe87d770e6" x="167.935494" y="307.584" style="stroke: #000000; stroke-width: 0.8"/>
      </g>
     </g>
     <g id="text_3">
      <!-- 2 -->
      <g transform="translate(165.435494 321.459) scale(0.1 -0.1)">
       <defs>
        <path id="SimHei-32" d="M 300 250 
Q 325 625 650 925 
Q 975 1225 1475 1862 
Q 1975 2500 2125 2850 
Q 2275 3200 2237 3450 
Q 2200 3700 2000 3862 
Q 1800 4025 1537 4000 
Q 1275 3975 1037 3800 
Q 800 3625 675 3275 
L 200 3350 
Q 400 3925 712 4187 
Q 1025 4450 1450 4475 
Q 1700 4500 1900 4462 
Q 2100 4425 2312 4287 
Q 2525 4150 2662 3875 
Q 2800 3600 2762 3212 
Q 2725 2825 2375 2287 
Q 2025 1750 1025 600 
L 2825 600 
L 2825 150 
L 300 150 
L 300 250 
z
" transform="scale(0.015625)"/>
       </defs>
       <use xlink:href="#SimHei-32"/>
      </g>
     </g>
    </g>
    <g id="xtick_4">
     <g id="line2d_4">
      <g>
       <use xlink:href="#mbe87d770e6" x="214.986877" y="307.584" style="stroke: #000000; stroke-width: 0.8"/>
      </g>
     </g>
     <g id="text_4">
      <!-- 3 -->
      <g transform="translate(212.486877 321.459) scale(0.1 -0.1)">
       <defs>
        <path id="SimHei-33" d="M 250 1225 
L 700 1300 
Q 800 975 1025 762 
Q 1250 550 1587 562 
Q 1925 575 2125 837 
Q 2325 1100 2300 1437 
Q 2275 1775 2037 1962 
Q 1800 2150 1275 2225 
L 1275 2550 
Q 1800 2600 2037 2825 
Q 2275 3050 2250 3412 
Q 2225 3775 1925 3937 
Q 1625 4100 1287 3975 
Q 950 3850 750 3275 
L 300 3350 
Q 450 3800 712 4100 
Q 975 4400 1425 4450 
Q 1875 4500 2212 4337 
Q 2550 4175 2687 3837 
Q 2825 3500 2725 3100 
Q 2625 2700 2150 2400 
Q 2500 2250 2687 1950 
Q 2875 1650 2812 1162 
Q 2750 675 2375 375 
Q 2000 75 1525 87 
Q 1050 100 700 387 
Q 350 675 250 1225 
z
" transform="scale(0.015625)"/>
       </defs>
       <use xlink:href="#SimHei-33"/>
      </g>
     </g>
    </g>
    <g id="xtick_5">
     <g id="line2d_5">
      <g>
       <use xlink:href="#mbe87d770e6" x="262.038261" y="307.584" style="stroke: #000000; stroke-width: 0.8"/>
      </g>
     </g>
     <g id="text_5">
      <!-- 4 -->
      <g transform="translate(259.538261 321.459) scale(0.1 -0.1)">
       <defs>
        <path id="SimHei-34" d="M 2000 1100 
L 75 1100 
L 75 1525 
L 2100 4450 
L 2475 4450 
L 2475 1525 
L 3075 1525 
L 3075 1100 
L 2475 1100 
L 2475 150 
L 2000 150 
L 2000 1100 
z
M 2000 1525 
L 2000 3500 
L 600 1525 
L 2000 1525 
z
" transform="scale(0.015625)"/>
       </defs>
       <use xlink:href="#SimHei-34"/>
      </g>
     </g>
    </g>
    <g id="xtick_6">
     <g id="line2d_6">
      <g>
       <use xlink:href="#mbe87d770e6" x="309.089644" y="307.584" style="stroke: #000000; stroke-width: 0.8"/>
      </g>
     </g>
     <g id="text_6">
      <!-- 5 -->
      <g transform="translate(306.589644 321.459) scale(0.1 -0.1)">
       <defs>
        <path id="SimHei-35" d="M 550 1325 
Q 725 650 1150 575 
Q 1575 500 1837 662 
Q 2100 825 2212 1087 
Q 2325 1350 2312 1675 
Q 2300 2000 2137 2225 
Q 1975 2450 1725 2525 
Q 1475 2600 1162 2525 
Q 850 2450 650 2175 
L 225 2225 
Q 275 2375 700 4375 
L 2675 4375 
L 2675 3925 
L 1075 3925 
Q 950 3250 825 2850 
Q 1200 3025 1525 3012 
Q 1850 3000 2150 2862 
Q 2450 2725 2587 2487 
Q 2725 2250 2787 2012 
Q 2850 1775 2837 1500 
Q 2825 1225 2725 937 
Q 2625 650 2425 462 
Q 2225 275 1937 162 
Q 1650 50 1275 75 
Q 900 100 562 350 
Q 225 600 100 1200 
L 550 1325 
z
" transform="scale(0.015625)"/>
       </defs>
       <use xlink:href="#SimHei-35"/>
      </g>
     </g>
    </g>
    <g id="xtick_7">
     <g id="line2d_7">
      <g>
       <use xlink:href="#mbe87d770e6" x="356.141028" y="307.584" style="stroke: #000000; stroke-width: 0.8"/>
      </g>
     </g>
     <g id="text_7">
      <!-- 6 -->
      <g transform="translate(353.641028 321.459) scale(0.1 -0.1)">
       <defs>
        <path id="SimHei-36" d="M 250 1612 
Q 275 1975 387 2225 
Q 500 2475 725 2850 
L 1750 4450 
L 2325 4450 
L 1275 2800 
Q 1950 2975 2350 2750 
Q 2750 2525 2887 2237 
Q 3025 1950 3037 1612 
Q 3050 1275 2937 950 
Q 2825 625 2537 362 
Q 2250 100 1737 75 
Q 1225 50 862 262 
Q 500 475 362 862 
Q 225 1250 250 1612 
z
M 1025 787 
Q 1250 550 1625 525 
Q 2000 500 2250 775 
Q 2500 1050 2500 1575 
Q 2500 2100 2187 2300 
Q 1875 2500 1487 2450 
Q 1100 2400 925 2075 
Q 750 1750 775 1387 
Q 800 1025 1025 787 
z
" transform="scale(0.015625)"/>
       </defs>
       <use xlink:href="#SimHei-36"/>
      </g>
     </g>
    </g>
    <g id="xtick_8">
     <g id="line2d_8">
      <g>
       <use xlink:href="#mbe87d770e6" x="403.192411" y="307.584" style="stroke: #000000; stroke-width: 0.8"/>
      </g>
     </g>
     <g id="text_8">
      <!-- 7 -->
      <g transform="translate(400.692411 321.459) scale(0.1 -0.1)">
       <defs>
        <path id="SimHei-37" d="M 850 150 
Q 1300 2050 2425 3925 
L 275 3925 
L 275 4375 
L 2950 4375 
L 2950 3950 
Q 1775 2050 1400 150 
L 850 150 
z
" transform="scale(0.015625)"/>
       </defs>
       <use xlink:href="#SimHei-37"/>
      </g>
     </g>
    </g>
    <g id="text_9">
     <!-- 时间 -->
     <g transform="translate(226.16 334.716812) scale(0.1 -0.1)">
      <defs>
       <path id="SimHei-65f6" d="M 2525 4575 
Q 2500 3675 2500 2400 
Q 2500 1125 2525 400 
L 2000 400 
L 2000 875 
L 1000 875 
L 1000 50 
L 475 50 
Q 500 1200 500 2350 
Q 500 3525 475 4575 
L 2525 4575 
z
M 4875 3825 
Q 4875 4575 4850 5225 
L 5400 5225 
Q 5375 4575 5375 3825 
Q 5750 3825 6175 3850 
L 6175 3375 
Q 5750 3400 5375 3400 
L 5375 50 
Q 5375 -325 5075 -425 
Q 4775 -525 4300 -575 
Q 4300 -275 4025 0 
Q 4500 -50 4687 -25 
Q 4875 0 4875 300 
L 4875 3400 
Q 3625 3400 2775 3375 
L 2775 3850 
Q 3575 3825 4875 3825 
z
M 2000 1300 
L 2000 2550 
L 1000 2550 
L 1000 1300 
L 2000 1300 
z
M 2000 2975 
L 2000 4150 
L 1000 4150 
L 1000 2975 
L 2000 2975 
z
M 3550 2725 
Q 3875 2200 4175 1600 
Q 3925 1525 3650 1375 
Q 3450 1975 3075 2500 
Q 3300 2600 3550 2725 
z
" transform="scale(0.015625)"/>
       <path id="SimHei-95f4" d="M 4450 3550 
Q 4425 3075 4425 2725 
L 4425 1400 
Q 4425 1075 4450 625 
L 1925 625 
Q 1950 1075 1950 1425 
L 1950 2725 
Q 1950 3075 1925 3550 
L 4450 3550 
z
M 5800 4875 
Q 5775 4400 5775 3925 
L 5775 250 
Q 5800 -325 5462 -450 
Q 5125 -575 4725 -625 
Q 4700 -325 4525 -25 
Q 5000 -50 5137 25 
Q 5275 100 5275 350 
L 5275 4450 
L 3775 4450 
Q 3175 4450 2650 4425 
L 2650 4900 
Q 3175 4875 3775 4875 
L 5800 4875 
z
M 550 -525 
Q 600 -25 600 525 
L 600 3150 
Q 600 3675 550 4025 
L 1125 4025 
Q 1100 3650 1100 3300 
L 1100 500 
Q 1100 0 1125 -525 
L 550 -525 
z
M 3950 1025 
L 3950 1950 
L 2425 1950 
L 2425 1025 
L 3950 1025 
z
M 3950 2350 
L 3950 3150 
L 2425 3150 
L 2425 2350 
L 3950 2350 
z
M 1525 5300 
Q 1750 5000 2225 4350 
Q 1950 4225 1700 4075 
Q 1450 4575 1075 5025 
Q 1350 5225 1525 5300 
z
" transform="scale(0.015625)"/>
      </defs>
      <use xlink:href="#SimHei-65f6"/>
      <use xlink:href="#SimHei-95f4" x="100"/>
     </g>
    </g>
   </g>
   <g id="matplotlib.axis_2">
    <g id="ytick_1">
     <g id="line2d_9">
      <defs>
       <path id="m26d6cb1c2d" d="M 0 0 
L -3.5 0 
" style="stroke: #000000; stroke-width: 0.8"/>
      </defs>
      <g>
       <use xlink:href="#m26d6cb1c2d" x="57.6" y="282.670908" style="stroke: #000000; stroke-width: 0.8"/>
      </g>
     </g>
     <g id="text_10">
      <!-- -5 -->
      <g transform="translate(40.6 286.108408) scale(0.1 -0.1)">
       <defs>
        <path id="SimHei-2d" d="M 2975 2125 
L 125 2125 
L 125 2525 
L 2975 2525 
L 2975 2125 
z
" transform="scale(0.015625)"/>
       </defs>
       <use xlink:href="#SimHei-2d"/>
       <use xlink:href="#SimHei-35" x="50"/>
      </g>
     </g>
    </g>
    <g id="ytick_2">
     <g id="line2d_10">
      <g>
       <use xlink:href="#m26d6cb1c2d" x="57.6" y="247.166497" style="stroke: #000000; stroke-width: 0.8"/>
      </g>
     </g>
     <g id="text_11">
      <!-- 0 -->
      <g transform="translate(45.6 250.603997) scale(0.1 -0.1)">
       <use xlink:href="#SimHei-30"/>
      </g>
     </g>
    </g>
    <g id="ytick_3">
     <g id="line2d_11">
      <g>
       <use xlink:href="#m26d6cb1c2d" x="57.6" y="211.662087" style="stroke: #000000; stroke-width: 0.8"/>
      </g>
     </g>
     <g id="text_12">
      <!-- 5 -->
      <g transform="translate(45.6 215.099587) scale(0.1 -0.1)">
       <use xlink:href="#SimHei-35"/>
      </g>
     </g>
    </g>
    <g id="ytick_4">
     <g id="line2d_12">
      <g>
       <use xlink:href="#m26d6cb1c2d" x="57.6" y="176.157676" style="stroke: #000000; stroke-width: 0.8"/>
      </g>
     </g>
     <g id="text_13">
      <!-- 10 -->
      <g transform="translate(40.6 179.595176) scale(0.1 -0.1)">
       <use xlink:href="#SimHei-31"/>
       <use xlink:href="#SimHei-30" x="50"/>
      </g>
     </g>
    </g>
    <g id="ytick_5">
     <g id="line2d_13">
      <g>
       <use xlink:href="#m26d6cb1c2d" x="57.6" y="140.653266" style="stroke: #000000; stroke-width: 0.8"/>
      </g>
     </g>
     <g id="text_14">
      <!-- 15 -->
      <g transform="translate(40.6 144.090766) scale(0.1 -0.1)">
       <use xlink:href="#SimHei-31"/>
       <use xlink:href="#SimHei-35" x="50"/>
      </g>
     </g>
    </g>
    <g id="ytick_6">
     <g id="line2d_14">
      <g>
       <use xlink:href="#m26d6cb1c2d" x="57.6" y="105.148855" style="stroke: #000000; stroke-width: 0.8"/>
      </g>
     </g>
     <g id="text_15">
      <!-- 20 -->
      <g transform="translate(40.6 108.586355) scale(0.1 -0.1)">
       <use xlink:href="#SimHei-32"/>
       <use xlink:href="#SimHei-30" x="50"/>
      </g>
     </g>
    </g>
    <g id="ytick_7">
     <g id="line2d_15">
      <g>
       <use xlink:href="#m26d6cb1c2d" x="57.6" y="69.644445" style="stroke: #000000; stroke-width: 0.8"/>
      </g>
     </g>
     <g id="text_16">
      <!-- 25 -->
      <g transform="translate(40.6 73.081945) scale(0.1 -0.1)">
       <use xlink:href="#SimHei-32"/>
       <use xlink:href="#SimHei-35" x="50"/>
      </g>
     </g>
    </g>
    <g id="text_17">
     <!-- 位移 -->
     <g transform="translate(35.35 184.528) rotate(-90) scale(0.1 -0.1)">
      <defs>
       <path id="SimHei-4f4d" d="M 2125 4925 
Q 1950 4750 1625 3750 
L 1625 575 
Q 1625 -225 1650 -650 
L 1100 -650 
Q 1150 -200 1150 550 
L 1150 2950 
Q 775 2275 550 1950 
Q 375 2275 200 2425 
Q 525 2775 912 3575 
Q 1300 4375 1500 5200 
Q 1825 5000 2125 4925 
z
M 5375 3025 
Q 5275 2875 5100 2250 
Q 4925 1625 4600 300 
L 5450 300 
Q 5925 300 6100 325 
L 6100 -175 
Q 5875 -150 5450 -150 
L 2900 -150 
Q 2275 -150 2050 -175 
L 2050 325 
Q 2275 300 2850 300 
L 4075 300 
Q 4400 1400 4700 3175 
Q 5100 3075 5375 3025 
z
M 5250 4025 
Q 5700 4025 5925 4050 
L 5925 3575 
Q 5700 3600 5225 3600 
L 3000 3600 
Q 2650 3600 2275 3575 
L 2275 4050 
Q 2675 4025 3000 4025 
L 5250 4025 
z
M 3050 3050 
Q 3500 1775 3750 725 
Q 3450 625 3250 550 
Q 3125 1125 2962 1675 
Q 2800 2225 2550 2875 
Q 2800 2925 3050 3050 
z
M 3875 5200 
Q 4175 4675 4400 4300 
Q 4200 4250 3875 4075 
Q 3700 4525 3400 4950 
Q 3650 5050 3875 5200 
z
" transform="scale(0.015625)"/>
       <path id="SimHei-79fb" d="M 4475 5050 
Q 4300 4875 4075 4500 
L 5850 4500 
Q 5475 3625 5212 3312 
Q 4950 3000 4450 2650 
Q 4675 2575 4925 2500 
Q 4775 2300 4650 2075 
L 6100 2075 
Q 5900 1325 5550 825 
Q 5200 325 4787 37 
Q 4375 -250 3900 -387 
Q 3425 -525 2950 -650 
Q 2850 -425 2600 -125 
Q 3275 -50 3712 37 
Q 4150 125 4525 400 
Q 4375 625 4000 1000 
Q 4125 1100 4325 1250 
Q 4525 1075 4900 675 
Q 5075 900 5250 1162 
Q 5425 1425 5500 1700 
L 4375 1700 
Q 4175 1500 3950 1287 
Q 3725 1075 3350 800 
Q 3150 1025 2950 1150 
Q 3600 1525 3875 1837 
Q 4150 2150 4325 2550 
Q 4025 2350 3750 2225 
Q 3475 2100 3050 1950 
Q 2950 2200 2675 2475 
Q 3150 2525 3475 2637 
Q 3800 2750 4225 3000 
Q 3875 3300 3675 3475 
Q 3775 3600 4000 3775 
Q 4325 3500 4575 3250 
Q 4775 3425 4925 3625 
Q 5075 3825 5175 4125 
L 3850 4125 
Q 3525 3600 3250 3275 
Q 3025 3425 2800 3550 
Q 3250 4000 3475 4387 
Q 3700 4775 3850 5225 
Q 4225 5100 4475 5050 
z
M 2850 4650 
Q 2650 4650 2400 4600 
Q 2150 4550 2000 4525 
L 2000 3425 
Q 2375 3425 2825 3450 
L 2825 3050 
Q 2375 3075 2000 3075 
L 2000 2175 
Q 2100 2300 2325 2525 
Q 2550 2225 2687 2062 
Q 2825 1900 3000 1675 
Q 2775 1550 2625 1375 
Q 2475 1600 2337 1737 
Q 2200 1875 2000 2100 
L 2000 525 
Q 2000 150 2025 -475 
L 1525 -475 
Q 1550 150 1550 525 
L 1550 2075 
Q 1400 1700 1237 1412 
Q 1075 1125 750 650 
Q 525 900 275 1050 
Q 450 1200 637 1425 
Q 825 1650 987 1937 
Q 1150 2225 1275 2525 
Q 1400 2825 1475 3075 
Q 1075 3075 350 3050 
L 350 3450 
Q 1075 3425 1550 3425 
L 1550 4425 
Q 925 4325 625 4250 
Q 525 4525 425 4725 
Q 825 4775 1025 4787 
Q 1225 4800 1475 4850 
L 2000 4975 
Q 2275 5050 2575 5150 
Q 2675 4900 2850 4650 
z
" transform="scale(0.015625)"/>
      </defs>
      <use xlink:href="#SimHei-4f4d"/>
      <use xlink:href="#SimHei-79fb" x="100"/>
     </g>
    </g>
   </g>
   <g id="line2d_16">
    <path d="M 73.832727 247.166497 
L 78.537866 247.130993 
L 83.243004 247.02448 
L 87.948142 246.846958 
L 92.653281 246.598427 
L 97.358419 246.278887 
L 102.063557 245.888339 
L 106.768696 245.426781 
L 111.473834 244.894215 
L 116.178972 244.29064 
L 120.884111 243.616056 
L 125.589249 242.870464 
L 130.294387 242.053862 
L 134.999526 241.166252 
L 139.704664 240.207633 
L 144.409802 239.178005 
L 149.114941 238.077368 
L 153.820079 236.905723 
L 158.525217 235.663068 
L 163.230356 234.349405 
L 167.935494 232.964733 
L 172.640632 231.509052 
L 177.345771 229.982363 
L 182.050909 228.384664 
L 186.756047 226.715957 
L 191.461186 224.976241 
L 196.166324 223.165516 
L 200.871462 221.283782 
L 205.576601 219.331039 
L 210.281739 217.307288 
L 214.986877 215.212528 
L 219.692016 213.046759 
L 224.397154 210.809981 
L 229.102292 208.502194 
L 233.807431 206.123399 
L 238.512569 203.673594 
L 243.217708 201.152781 
L 247.922846 198.560959 
L 252.627984 195.898129 
L 257.333123 193.164289 
L 262.038261 190.359441 
L 266.743399 187.483583 
L 271.448538 184.536717 
L 276.153676 181.518842 
L 280.858814 178.429959 
L 285.563953 175.270066 
L 290.269091 172.039165 
L 294.974229 168.737255 
L 299.679368 165.364336 
L 304.384506 161.920408 
L 309.089644 158.405471 
L 313.794783 154.819526 
L 318.499921 151.162571 
L 323.205059 147.434608 
L 327.910198 143.635636 
L 332.615336 139.765656 
L 337.320474 135.824666 
L 342.025613 131.812668 
L 346.730751 127.72966 
L 351.435889 123.575644 
L 356.141028 119.35062 
L 360.846166 115.054586 
L 365.551304 110.687543 
L 370.256443 106.249492 
L 374.961581 101.740432 
L 379.666719 97.160363 
L 384.371858 92.509285 
L 389.076996 87.787199 
L 393.782134 82.994103 
L 398.487273 78.129999 
" clip-path="url(#p5bb0b2c3f1)" style="fill: none; stroke: #1f77b4; stroke-width: 1.5; stroke-linecap: square"/>
   </g>
   <g id="line2d_17">
    <path d="M 73.832727 233.035742 
L 78.537866 251.036478 
L 83.243004 228.633195 
L 87.948142 203.602586 
L 92.653281 253.273256 
L 97.358419 252.953716 
L 102.063557 201.010764 
L 106.768696 223.627073 
L 111.473834 258.243873 
L 116.178972 228.881726 
L 120.884111 256.752688 
L 125.589249 256.078104 
L 130.294387 235.166007 
L 134.999526 295.488 
L 139.704664 289.203719 
L 144.409802 255.15499 
L 149.114941 266.835941 
L 153.820079 227.958611 
L 158.525217 261.43927 
L 163.230356 274.469389 
L 167.935494 191.353564 
L 172.640632 237.899846 
L 177.345771 228.065124 
L 182.050909 268.859692 
L 186.756047 242.19588 
L 191.461186 221.851853 
L 196.166324 255.829573 
L 200.871462 210.632459 
L 205.576601 236.373157 
L 210.281739 225.61532 
L 214.986877 232.325654 
L 219.692016 160.429222 
L 224.397154 211.165025 
L 229.102292 238.538926 
L 233.807431 182.761497 
L 238.512569 238.325899 
L 243.217708 195.18804 
L 247.922846 254.231875 
L 252.627984 233.603813 
L 257.333123 187.554592 
L 262.038261 169.411838 
L 266.743399 182.583975 
L 271.448538 187.803123 
L 276.153676 190.039901 
L 280.858814 220.396172 
L 285.563953 195.720607 
L 290.269091 185.104788 
L 294.974229 138.700523 
L 299.679368 155.636127 
L 304.384506 211.981627 
L 309.089644 149.174324 
L 313.794783 165.754884 
L 318.499921 170.405962 
L 323.205059 130.037447 
L 327.910198 114.380002 
L 332.615336 113.279365 
L 337.320474 159.68363 
L 342.025613 140.617761 
L 346.730751 118.285487 
L 351.435889 95.882204 
L 356.141028 132.984313 
L 360.846166 120.309239 
L 365.551304 142.144451 
L 370.256443 140.191708 
L 374.961581 78.662565 
L 379.666719 58.673582 
L 384.371858 94.568541 
L 389.076996 59.312661 
L 393.782134 72.697824 
L 398.487273 96.450275 
" clip-path="url(#p5bb0b2c3f1)" style="fill: none; stroke: #ff7f0e; stroke-width: 1.5; stroke-linecap: square"/>
   </g>
   <g id="line2d_18">
    <path d="M 73.832727 233.018915 
L 78.537866 240.028926 
L 83.243004 236.110058 
L 87.948142 225.347493 
L 92.653281 233.741637 
L 97.358419 239.711678 
L 102.063557 227.127105 
L 106.768696 225.306425 
L 111.473834 235.435123 
L 116.178972 233.055725 
L 120.884111 240.584021 
L 125.589249 245.776086 
L 130.294387 242.49181 
L 134.999526 260.183642 
L 139.704664 270.770731 
L 144.409802 266.919114 
L 149.114941 267.885465 
L 153.820079 255.512533 
L 158.525217 257.63038 
L 163.230356 263.428801 
L 167.935494 239.911674 
L 172.640632 238.36699 
L 177.345771 234.009199 
L 182.050909 244.443281 
L 186.756047 243.146391 
L 191.461186 235.455419 
L 196.166324 241.193179 
L 200.871462 230.361159 
L 205.576601 231.105412 
L 210.281739 228.122654 
L 214.986877 228.243036 
L 219.692016 204.533208 
L 224.397154 204.328197 
L 229.102292 213.399764 
L 233.807431 201.565778 
L 238.512569 211.5512 
L 243.217708 204.563166 
L 247.922846 219.184292 
L 252.627984 222.974118 
L 257.333123 210.462953 
L 262.038261 195.444439 
L 266.743399 189.05426 
L 271.448538 186.299308 
L 276.153676 185.191159 
L 280.858814 194.595269 
L 285.563953 193.317353 
L 290.269091 188.957451 
L 294.974229 170.507666 
L 299.679368 162.922641 
L 304.384506 176.302451 
L 309.089644 165.292037 
L 313.794783 162.967183 
L 318.499921 162.980296 
L 323.205059 149.74659 
L 327.910198 135.152122 
L 332.615336 124.447983 
L 337.320474 132.345874 
L 342.025613 131.961376 
L 346.730751 124.474914 
L 351.435889 111.834275 
L 356.141028 115.229397 
L 360.846166 113.706898 
L 365.551304 120.053484 
L 370.256443 124.171516 
L 374.961581 106.886426 
L 379.666719 87.92754 
L 384.371858 86.355448 
L 389.076996 73.778056 
L 393.782134 69.388896 
L 398.487273 74.370104 
" clip-path="url(#p5bb0b2c3f1)" style="fill: none; stroke: #2ca02c; stroke-width: 1.5; stroke-linecap: square"/>
   </g>
   <g id="line2d_19">
    <path d="M 73.832727 233.018078 
L 78.537866 239.871719 
L 83.243004 236.049617 
L 87.948142 225.353947 
L 92.653281 233.732 
L 97.358419 239.704758 
L 102.063557 227.125538 
L 106.768696 225.307717 
L 111.473834 235.437156 
L 116.178972 233.058899 
L 120.884111 240.585651 
L 125.589249 245.776363 
L 130.294387 242.493144 
L 134.999526 260.180069 
L 139.704664 270.764953 
L 144.409802 266.914989 
L 149.114941 267.88171 
L 153.820079 255.511413 
L 158.525217 257.629069 
L 163.230356 263.42692 
L 167.935494 239.912444 
L 172.640632 238.367712 
L 177.345771 234.010064 
L 182.050909 244.443359 
L 186.756047 243.146484 
L 191.461186 235.455768 
L 196.166324 241.193263 
L 200.871462 230.361489 
L 205.576601 231.105655 
L 210.281739 228.122894 
L 214.986877 228.243224 
L 219.692016 204.533626 
L 224.397154 204.328543 
L 229.102292 213.399982 
L 233.807431 201.566031 
L 238.512569 211.551363 
L 243.217708 204.563331 
L 247.922846 219.184383 
L 252.627984 222.974187 
L 257.333123 210.46304 
L 262.038261 195.444539 
L 266.743399 189.054354 
L 271.448538 186.299391 
L 276.153676 185.191232 
L 280.858814 194.595326 
L 285.563953 193.317403 
L 290.269091 188.957497 
L 294.974229 170.507714 
L 299.679368 162.922685 
L 304.384506 176.302486 
L 309.089644 165.29207 
L 313.794783 162.967213 
L 318.499921 162.980322 
L 323.205059 149.746615 
L 327.910198 135.152145 
L 332.615336 124.448004 
L 337.320474 132.345893 
L 342.025613 131.961392 
L 346.730751 124.474928 
L 351.435889 111.834288 
L 356.141028 115.229409 
L 360.846166 113.706908 
L 365.551304 120.053493 
L 370.256443 124.171524 
L 374.961581 106.886434 
L 379.666719 87.927547 
L 384.371858 86.355455 
L 389.076996 73.778062 
L 393.782134 69.388901 
L 398.487273 74.370109 
" clip-path="url(#p5bb0b2c3f1)" style="fill: none; stroke: #d62728; stroke-width: 1.5; stroke-linecap: square"/>
   </g>
   <g id="line2d_20">
    <path d="M 73.832727 233.018915 
L 78.537866 240.028926 
L 83.243004 236.110058 
L 87.948142 225.347493 
L 92.653281 233.741637 
L 97.358419 239.711678 
L 102.063557 227.127105 
L 106.768696 225.306425 
L 111.473834 235.435123 
L 116.178972 233.055725 
L 120.884111 240.584021 
L 125.589249 245.776086 
L 130.294387 242.49181 
L 134.999526 260.183642 
L 139.704664 270.770731 
L 144.409802 266.919114 
L 149.114941 267.885465 
L 153.820079 255.512533 
L 158.525217 257.63038 
L 163.230356 263.428801 
L 167.935494 239.911674 
L 172.640632 238.36699 
L 177.345771 234.009199 
L 182.050909 244.443281 
L 186.756047 243.146391 
L 191.461186 235.455419 
L 196.166324 241.193179 
L 200.871462 230.361159 
L 205.576601 231.105412 
L 210.281739 228.122654 
L 214.986877 228.243036 
L 219.692016 204.533208 
L 224.397154 204.328197 
L 229.102292 213.399764 
L 233.807431 201.565778 
L 238.512569 211.5512 
L 243.217708 204.563166 
L 247.922846 219.184292 
L 252.627984 222.974118 
L 257.333123 210.462953 
L 262.038261 195.444439 
L 266.743399 189.05426 
L 271.448538 186.299308 
L 276.153676 185.191159 
L 280.858814 194.595269 
L 285.563953 193.317353 
L 290.269091 188.957451 
L 294.974229 170.507666 
L 299.679368 162.922641 
L 304.384506 176.302451 
L 309.089644 165.292037 
L 313.794783 162.967183 
L 318.499921 162.980296 
L 323.205059 149.74659 
L 327.910198 135.152122 
L 332.615336 124.447983 
L 337.320474 132.345874 
L 342.025613 131.961376 
L 346.730751 124.474914 
L 351.435889 111.834275 
L 356.141028 115.229397 
L 360.846166 113.706898 
L 365.551304 120.053484 
L 370.256443 124.171516 
L 374.961581 106.886426 
L 379.666719 87.92754 
L 384.371858 86.355448 
L 389.076996 73.778056 
L 393.782134 69.388896 
L 398.487273 74.370104 
" clip-path="url(#p5bb0b2c3f1)" style="fill: none; stroke: #9467bd; stroke-width: 1.5; stroke-linecap: square"/>
   </g>
   <g id="line2d_21">
    <path d="M 73.832727 233.354426 
L 78.537866 233.018612 
L 83.243004 233.004967 
L 87.948142 231.492473 
L 92.653281 233.170352 
L 97.358419 232.850747 
L 102.063557 230.641781 
L 106.768696 230.946834 
L 111.473834 231.808447 
L 116.178972 229.551806 
L 120.884111 231.587396 
L 125.589249 232.224235 
L 130.294387 227.862298 
L 134.999526 233.035742 
L 139.704664 233.035742 
L 144.409802 233.035742 
L 149.114941 233.035742 
L 153.820079 221.654471 
L 158.525217 233.035742 
L 163.230356 233.035742 
L 167.935494 211.753419 
L 172.640632 233.035742 
L 177.345771 225.128086 
L 182.050909 233.035742 
L 186.756047 233.035742 
L 191.461186 215.216457 
L 196.166324 233.035742 
L 200.871462 206.323186 
L 205.576601 233.035742 
L 210.281739 230.091367 
L 214.986877 233.035742 
L 219.692016 188.354602 
L 224.397154 199.099398 
L 229.102292 233.035742 
L 233.807431 184.027999 
L 238.512569 233.035742 
L 243.217708 182.331412 
L 247.922846 233.035742 
L 252.627984 233.035742 
L 257.333123 176.803921 
L 262.038261 166.70236 
L 266.743399 171.306737 
L 271.448538 172.300129 
L 276.153676 167.539238 
L 280.858814 233.035742 
L 285.563953 168.1742 
L 290.269091 157.504773 
L 294.974229 138.298546 
L 299.679368 148.453548 
L 304.384506 233.035742 
L 309.089644 142.146359 
L 313.794783 139.626291 
L 318.499921 134.908531 
L 323.205059 125.017839 
L 327.910198 116.741401 
L 332.615336 112.449263 
L 337.320474 119.156362 
L 342.025613 114.437423 
L 346.730751 108.638101 
L 351.435889 97.587195 
L 356.141028 99.285716 
L 360.846166 94.929865 
L 365.551304 89.506202 
L 370.256443 83.807355 
L 374.961581 74.989894 
L 379.666719 61.884871 
L 384.371858 68.789733 
L 389.076996 59.05916 
L 393.782134 57.659103 
L 398.487273 53.568 
" clip-path="url(#p5bb0b2c3f1)" style="fill: none; stroke: #8c564b; stroke-width: 1.5; stroke-linecap: square"/>
   </g>
   <g id="line2d_22">
    <path d="M 73.832727 233.000238 
L 78.537866 233.125499 
L 83.243004 232.934868 
L 87.948142 232.090731 
L 92.653281 232.096742 
L 97.358419 232.024082 
L 102.063557 230.905275 
L 106.768696 230.340668 
L 111.473834 230.309301 
L 116.178972 229.634318 
L 120.884111 229.435418 
L 125.589249 229.149746 
L 130.294387 228.295697 
L 134.999526 230.60748 
L 139.704664 232.081234 
L 144.409802 231.392097 
L 149.114941 231.164485 
L 153.820079 229.919116 
L 158.525217 229.364556 
L 163.230356 229.501719 
L 167.935494 227.09803 
L 172.640632 225.678364 
L 177.345771 224.091844 
L 182.050909 223.941507 
L 186.756047 222.48328 
L 191.461186 220.673534 
L 196.166324 219.757735 
L 200.871462 217.768767 
L 205.576601 216.044641 
L 210.281739 214.045702 
L 214.986877 212.174281 
L 219.692016 208.211612 
L 224.397154 205.923316 
L 229.102292 204.406814 
L 233.807431 201.697558 
L 238.512569 200.255946 
L 243.217708 197.659807 
L 247.922846 197.467636 
L 252.627984 195.797663 
L 257.333123 192.97199 
L 262.038261 189.794875 
L 266.743399 186.835206 
L 271.448538 183.828517 
L 276.153676 180.800538 
L 280.858814 178.927834 
L 285.563953 175.979255 
L 290.269091 172.786093 
L 294.974229 168.748984 
L 299.679368 165.239228 
L 304.384506 163.502802 
L 309.089644 159.835598 
L 313.794783 156.243216 
L 318.499921 152.740632 
L 323.205059 148.690023 
L 327.910198 144.16759 
L 332.615336 139.715289 
L 337.320474 136.10821 
L 342.025613 132.07719 
L 346.730751 127.85777 
L 351.435889 123.090494 
L 356.141028 118.93624 
L 360.846166 114.592398 
L 365.551304 110.874938 
L 370.256443 107.171543 
L 374.961581 102.18829 
L 379.666719 96.473695 
L 384.371858 91.757196 
L 389.076996 86.425715 
L 393.782134 81.506289 
L 398.487273 76.849436 
" clip-path="url(#p5bb0b2c3f1)" style="fill: none; stroke: #e377c2; stroke-width: 1.5; stroke-linecap: square"/>
   </g>
   <g id="line2d_23">
    <path d="M 73.832727 233.018915 
L 78.537866 240.029141 
L 83.243004 235.995401 
L 87.948142 225.248038 
L 92.653281 234.084809 
L 97.358419 239.955854 
L 102.063557 226.823719 
L 106.768696 225.401853 
L 111.473834 236.108964 
L 116.178972 233.192196 
L 120.884111 240.851942 
L 125.589249 245.636585 
L 130.294387 241.373405 
L 134.999526 259.975437 
L 139.704664 269.777262 
L 144.409802 263.799902 
L 149.114941 264.156751 
L 153.820079 250.127791 
L 158.525217 253.463281 
L 163.230356 260.377535 
L 167.935494 233.720453 
L 172.640632 234.335019 
L 177.345771 230.973621 
L 182.050909 244.322644 
L 186.756047 242.435152 
L 191.461186 233.417759 
L 196.166324 240.911904 
L 200.871462 227.969862 
L 205.576601 230.011795 
L 210.281739 227.01511 
L 214.986877 227.793106 
L 219.692016 199.791518 
L 224.397154 202.921198 
L 229.102292 215.71201 
L 233.807431 201.031261 
L 238.512569 214.545913 
L 243.217708 205.172956 
L 247.922846 223.516446 
L 252.627984 226.011088 
L 257.333123 208.609282 
L 262.038261 190.803727 
L 266.743399 185.681123 
L 271.448538 184.792135 
L 276.153676 185.169055 
L 280.858814 198.026158 
L 285.563953 195.182746 
L 290.269091 189.033354 
L 294.974229 165.858074 
L 299.679368 159.546187 
L 304.384506 179.784873 
L 309.089644 164.687753 
L 313.794783 163.049579 
L 318.499921 164.073553 
L 323.205059 147.270807 
L 327.910198 130.881348 
L 332.615336 121.029011 
L 337.320474 135.535302 
L 342.025613 135.442147 
L 346.730751 125.611309 
L 351.435889 110.219277 
L 356.141028 117.805758 
L 360.846166 116.464044 
L 365.551304 125.324978 
L 370.256443 129.39483 
L 374.961581 104.325016 
L 379.666719 81.42288 
L 384.371858 84.675444 
L 389.076996 70.677927 
L 393.782134 68.902145 
L 398.487273 78.576694 
" clip-path="url(#p5bb0b2c3f1)" style="fill: none; stroke: #7f7f7f; stroke-width: 1.5; stroke-linecap: square"/>
   </g>
   <g id="patch_3">
    <path d="M 57.6 307.584 
L 57.6 41.472 
" style="fill: none; stroke: #000000; stroke-width: 0.8; stroke-linejoin: miter; stroke-linecap: square"/>
   </g>
   <g id="patch_4">
    <path d="M 414.72 307.584 
L 414.72 41.472 
" style="fill: none; stroke: #000000; stroke-width: 0.8; stroke-linejoin: miter; stroke-linecap: square"/>
   </g>
   <g id="patch_5">
    <path d="M 57.6 307.584 
L 414.72 307.584 
" style="fill: none; stroke: #000000; stroke-width: 0.8; stroke-linejoin: miter; stroke-linecap: square"/>
   </g>
   <g id="patch_6">
    <path d="M 57.6 41.472 
L 414.72 41.472 
" style="fill: none; stroke: #000000; stroke-width: 0.8; stroke-linejoin: miter; stroke-linecap: square"/>
   </g>
   <g id="text_18">
    <!-- 滤波示意图 -->
    <g transform="translate(206.16 35.472) scale(0.12 -0.12)">
     <defs>
      <path id="SimHei-6ee4" d="M 3500 3575 
L 2500 3575 
L 2500 2375 
Q 2500 1825 2425 1287 
Q 2350 750 2175 250 
Q 2000 -250 1750 -675 
Q 1550 -475 1325 -375 
Q 1650 25 1850 637 
Q 2050 1250 2075 1862 
Q 2100 2475 2100 3000 
Q 2100 3550 2075 3950 
L 3450 3950 
L 3450 4575 
Q 3450 4800 3425 5175 
L 3900 5175 
Q 3875 4925 3875 4725 
L 4900 4725 
Q 5150 4725 5625 4750 
L 5625 4325 
Q 5150 4350 4900 4350 
L 3875 4350 
L 3875 3950 
L 5875 3950 
Q 5825 3750 5775 3575 
Q 5725 3400 5625 3000 
Q 5425 3075 5175 3125 
Q 5275 3350 5325 3575 
L 3900 3575 
L 3900 2950 
Q 4275 3025 5000 3225 
L 5075 2825 
Q 4450 2700 3900 2575 
L 3900 2300 
Q 3900 2075 4150 2075 
L 4875 2075 
Q 5150 2050 5200 2550 
Q 5425 2400 5650 2325 
Q 5475 1825 5337 1762 
Q 5200 1700 4900 1700 
L 3925 1700 
Q 3500 1700 3500 2125 
L 3500 2475 
Q 3175 2400 2725 2300 
L 2600 2725 
Q 3175 2800 3500 2875 
L 3500 3575 
z
M 5425 75 
Q 5275 -375 5125 -475 
Q 4975 -575 4825 -575 
L 3725 -575 
Q 3325 -575 3325 -125 
L 3325 400 
Q 3325 525 3300 1050 
L 3750 1050 
Q 3725 525 3725 150 
L 3725 100 
Q 3725 -175 4025 -175 
L 4600 -175 
Q 4750 -175 4850 -87 
Q 4950 0 4975 300 
Q 5200 150 5425 75 
z
M 1725 1750 
Q 1650 1625 1475 1162 
Q 1300 700 1150 375 
Q 1000 50 775 -425 
Q 525 -200 300 -150 
Q 700 375 950 987 
Q 1200 1600 1325 2000 
L 1725 1750 
z
M 650 3425 
Q 925 3250 1725 2725 
Q 1550 2550 1425 2325 
Q 1225 2500 400 3050 
Q 550 3250 650 3425 
z
M 3100 875 
Q 2975 500 2625 -375 
Q 2425 -275 2250 -150 
Q 2600 600 2700 1050 
Q 2875 975 3100 875 
z
M 850 4900 
Q 1025 4800 1300 4625 
Q 1575 4450 1900 4225 
Q 1700 4025 1600 3825 
Q 1000 4350 575 4550 
Q 725 4725 850 4900 
z
M 5475 1275 
Q 5675 1000 5825 762 
Q 5975 525 6150 250 
Q 5950 150 5775 0 
Q 5625 300 5125 1025 
Q 5300 1125 5475 1275 
z
M 4250 1550 
Q 4425 1275 4487 1175 
Q 4550 1075 4800 650 
Q 4575 575 4400 425 
Q 4225 800 3900 1325 
Q 4100 1425 4250 1550 
z
" transform="scale(0.015625)"/>
      <path id="SimHei-6ce2" d="M 5075 3275 
Q 5175 3600 5225 3850 
L 4325 3850 
L 4325 2750 
L 5550 2750 
Q 5400 2100 5125 1512 
Q 4850 925 4525 550 
Q 4775 350 5200 175 
Q 5625 0 6175 -100 
Q 5900 -300 5775 -600 
Q 5250 -425 4800 -175 
Q 4350 75 4200 225 
Q 3950 25 3537 -212 
Q 3125 -450 2500 -675 
Q 2375 -500 2050 -375 
Q 2525 -250 3062 25 
Q 3600 300 3850 550 
Q 3325 1300 3075 2325 
L 2825 2325 
Q 2800 1400 2487 725 
Q 2175 50 1875 -300 
Q 1700 -150 1375 -50 
Q 1750 325 1950 712 
Q 2150 1100 2262 1475 
Q 2375 1850 2387 2825 
Q 2400 3800 2350 4275 
L 3875 4275 
Q 3875 4850 3850 5200 
L 4350 5200 
Q 4325 4900 4325 4275 
L 5850 4275 
Q 5825 4125 5750 3837 
Q 5675 3550 5600 3200 
Q 5300 3250 5075 3275 
z
M 3525 2325 
Q 3800 1400 4200 925 
Q 4650 1475 4925 2325 
L 3525 2325 
z
M 1950 1700 
Q 1700 1375 1262 712 
Q 825 50 675 -200 
Q 475 50 225 275 
Q 525 525 937 1100 
Q 1350 1675 1550 2100 
L 1950 1700 
z
M 3875 2750 
L 3875 3850 
L 2850 3850 
L 2850 2750 
L 3875 2750 
z
M 925 4925 
Q 1600 4525 2000 4250 
Q 1800 4025 1675 3800 
Q 1250 4150 625 4500 
Q 775 4700 925 4925 
z
M 600 3525 
Q 1125 3250 1725 2850 
Q 1525 2675 1400 2425 
Q 925 2825 350 3100 
Q 450 3275 600 3525 
z
" transform="scale(0.015625)"/>
      <path id="SimHei-793a" d="M 5175 3050 
Q 5500 3050 5975 3075 
L 5975 2575 
Q 5500 2625 5150 2625 
L 3500 2625 
L 3500 -75 
Q 3500 -350 3212 -487 
Q 2925 -625 2425 -675 
Q 2400 -425 2175 -100 
Q 2625 -125 2825 -87 
Q 3025 -50 3025 175 
L 3025 2625 
L 1400 2625 
Q 900 2625 500 2600 
L 500 3075 
Q 925 3050 1400 3050 
L 5175 3050 
z
M 4425 4775 
Q 4775 4775 5225 4800 
L 5225 4325 
Q 4775 4350 4425 4350 
L 2125 4350 
Q 1600 4350 1200 4325 
L 1200 4800 
Q 1600 4775 2125 4775 
L 4425 4775 
z
M 2225 1825 
Q 1950 1400 1650 900 
Q 1350 400 975 -125 
Q 775 75 500 150 
Q 900 600 1200 1087 
Q 1500 1575 1725 2075 
Q 1975 1925 2225 1825 
z
M 4500 2025 
Q 5450 925 5925 275 
Q 5650 125 5475 -25 
Q 5100 550 4125 1750 
Q 4325 1850 4500 2025 
z
" transform="scale(0.015625)"/>
      <path id="SimHei-610f" d="M 5175 2900 
Q 5150 2425 5150 1975 
Q 5150 1550 5175 1050 
L 1200 1050 
Q 1225 1550 1225 2000 
Q 1225 2450 1200 2900 
L 5175 2900 
z
M 1575 4250 
Q 1125 4250 625 4225 
L 625 4650 
Q 1150 4625 1575 4625 
L 3075 4625 
Q 3050 4825 2900 5150 
Q 3175 5175 3475 5250 
Q 3575 4800 3625 4625 
L 4775 4625 
Q 5275 4625 5650 4650 
L 5650 4225 
Q 5225 4250 4775 4250 
L 2275 4250 
Q 2450 4000 2575 3775 
L 2225 3625 
L 3800 3625 
Q 3900 3750 4025 4200 
Q 4325 4125 4575 4050 
Q 4400 3825 4300 3625 
L 5050 3625 
Q 5600 3625 6075 3650 
L 6075 3225 
Q 5600 3250 5050 3250 
L 1300 3250 
Q 775 3250 325 3225 
L 325 3650 
Q 800 3625 1300 3625 
L 2125 3625 
Q 2050 3825 1875 4050 
Q 2025 4125 2225 4250 
L 1575 4250 
z
M 2325 725 
Q 2300 450 2300 275 
Q 2300 125 2312 0 
Q 2325 -125 2550 -125 
L 4025 -125 
Q 4175 -75 4275 450 
Q 4475 275 4825 175 
Q 4650 -300 4525 -400 
Q 4400 -500 4100 -500 
L 2275 -500 
Q 1850 -475 1825 -287 
Q 1800 -100 1800 150 
Q 1800 400 1750 725 
L 2325 725 
z
M 4650 2150 
L 4650 2550 
L 1725 2550 
L 1725 2150 
L 4650 2150 
z
M 4650 1425 
L 4650 1775 
L 1725 1775 
L 1725 1425 
L 4650 1425 
z
M 5400 850 
Q 5875 225 6125 -75 
Q 5900 -250 5725 -375 
Q 5550 -100 5000 575 
Q 5150 700 5400 850 
z
M 1275 575 
Q 1050 100 800 -550 
Q 500 -425 300 -375 
Q 600 25 800 725 
Q 1025 625 1275 575 
z
M 3325 975 
Q 3600 600 3775 350 
Q 3550 200 3325 75 
Q 3250 300 2900 700 
Q 3050 825 3325 975 
z
" transform="scale(0.015625)"/>
      <path id="SimHei-56fe" d="M 5800 4975 
Q 5775 4350 5775 3600 
L 5775 925 
Q 5775 150 5800 -600 
L 5300 -600 
L 5300 -275 
L 1125 -275 
L 1125 -650 
L 625 -650 
Q 650 125 650 950 
L 650 3600 
Q 650 4325 625 4975 
L 5800 4975 
z
M 5300 150 
L 5300 4575 
L 1125 4575 
L 1125 150 
L 5300 150 
z
M 3225 4250 
Q 3075 4100 2950 3925 
L 4625 3925 
Q 4525 3700 4300 3375 
Q 4075 3050 3600 2600 
Q 4350 2225 5075 2150 
Q 4900 1925 4775 1675 
Q 3850 1950 3225 2350 
Q 2500 1875 1675 1650 
Q 1600 1875 1400 2075 
Q 2200 2200 2875 2600 
Q 2525 2925 2375 3150 
Q 2150 2900 1900 2650 
Q 1725 2850 1525 2950 
Q 1950 3300 2250 3737 
Q 2550 4175 2675 4475 
Q 2925 4350 3225 4250 
z
M 2450 1275 
Q 3550 950 4100 725 
Q 3975 525 3850 300 
Q 2825 725 2275 850 
Q 2375 1050 2450 1275 
z
M 2925 2050 
Q 3775 1700 4075 1600 
Q 3950 1400 3850 1150 
Q 3000 1550 2700 1650 
Q 2825 1825 2925 2050 
z
M 2625 3450 
Q 3000 3025 3275 2850 
Q 3600 3100 3875 3525 
L 2675 3525 
L 2625 3450 
z
" transform="scale(0.015625)"/>
     </defs>
     <use xlink:href="#SimHei-6ee4"/>
     <use xlink:href="#SimHei-6ce2" x="100"/>
     <use xlink:href="#SimHei-793a" x="200"/>
     <use xlink:href="#SimHei-610f" x="300"/>
     <use xlink:href="#SimHei-56fe" x="400"/>
    </g>
   </g>
   <g id="legend_1">
    <g id="patch_7">
     <path d="M 64.6 89.222 
L 345.1 89.222 
Q 347.1 89.222 347.1 87.222 
L 347.1 48.472 
Q 347.1 46.472 345.1 46.472 
L 64.6 46.472 
Q 62.6 46.472 62.6 48.472 
L 62.6 87.222 
Q 62.6 89.222 64.6 89.222 
z
" style="fill: #ffffff; opacity: 0.8; stroke: #cccccc; stroke-linejoin: miter"/>
    </g>
    <g id="line2d_24">
     <path d="M 66.6 53.972 
L 76.6 53.972 
L 86.6 53.972 
" style="fill: none; stroke: #1f77b4; stroke-width: 1.5; stroke-linecap: square"/>
    </g>
    <g id="text_19">
     <!-- true -->
     <g transform="translate(94.6 57.472) scale(0.1 -0.1)">
      <defs>
       <path id="SimHei-74" d="M 2750 200 
Q 2625 150 2462 112 
Q 2300 75 2025 75 
Q 1575 75 1300 325 
Q 1025 575 1025 1025 
L 1025 2525 
L 175 2525 
L 175 2925 
L 1025 2925 
L 1025 3900 
L 1525 3900 
L 1525 2925 
L 2550 2925 
L 2550 2525 
L 1525 2525 
L 1525 1000 
Q 1525 800 1625 662 
Q 1725 525 2000 525 
Q 2275 525 2450 575 
Q 2625 625 2750 700 
L 2750 200 
z
" transform="scale(0.015625)"/>
       <path id="SimHei-72" d="M 2500 2425 
Q 2025 2500 1700 2287 
Q 1375 2075 1150 1550 
L 1150 125 
L 650 125 
L 650 2925 
L 1150 2925 
L 1150 2200 
Q 1375 2600 1712 2787 
Q 2050 2975 2500 2975 
L 2500 2425 
z
" transform="scale(0.015625)"/>
       <path id="SimHei-75" d="M 2800 125 
L 2300 125 
L 2300 650 
Q 2100 375 1862 225 
Q 1625 75 1250 75 
Q 800 75 575 325 
Q 350 575 350 950 
L 350 2925 
L 850 2925 
L 850 1125 
Q 850 825 1000 650 
Q 1150 475 1400 475 
Q 1725 475 2012 812 
Q 2300 1150 2300 1650 
L 2300 2925 
L 2800 2925 
L 2800 125 
z
" transform="scale(0.015625)"/>
       <path id="SimHei-65" d="M 2850 1075 
Q 2800 625 2450 350 
Q 2100 75 1625 75 
Q 1025 75 637 462 
Q 250 850 250 1525 
Q 250 2200 637 2587 
Q 1025 2975 1625 2975 
Q 2150 2975 2487 2637 
Q 2825 2300 2825 1525 
L 800 1525 
Q 800 975 1037 750 
Q 1275 525 1625 525 
Q 1900 525 2075 662 
Q 2250 800 2300 1075 
L 2850 1075 
z
M 2250 1925 
Q 2200 2275 2025 2412 
Q 1850 2550 1575 2550 
Q 1325 2550 1125 2412 
Q 925 2275 825 1925 
L 2250 1925 
z
" transform="scale(0.015625)"/>
      </defs>
      <use xlink:href="#SimHei-74"/>
      <use xlink:href="#SimHei-72" x="50"/>
      <use xlink:href="#SimHei-75" x="100"/>
      <use xlink:href="#SimHei-65" x="150"/>
     </g>
    </g>
    <g id="line2d_25">
     <path d="M 66.6 67.222 
L 76.6 67.222 
L 86.6 67.222 
" style="fill: none; stroke: #ff7f0e; stroke-width: 1.5; stroke-linecap: square"/>
    </g>
    <g id="text_20">
     <!-- measure -->
     <g transform="translate(94.6 70.722) scale(0.1 -0.1)">
      <defs>
       <path id="SimHei-6d" d="M 3050 125 
L 2550 125 
L 2550 2150 
Q 2550 2300 2500 2400 
Q 2450 2500 2300 2500 
Q 2125 2500 1975 2312 
Q 1825 2125 1825 1825 
L 1825 125 
L 1325 125 
L 1325 2150 
Q 1325 2300 1275 2400 
Q 1225 2500 1075 2500 
Q 900 2500 750 2312 
Q 600 2125 600 1825 
L 600 125 
L 100 125 
L 100 2925 
L 600 2925 
L 600 2550 
Q 725 2750 900 2862 
Q 1075 2975 1275 2975 
Q 1475 2975 1612 2862 
Q 1750 2750 1800 2550 
Q 1925 2750 2087 2862 
Q 2250 2975 2450 2975 
Q 2750 2975 2900 2812 
Q 3050 2650 3050 2350 
L 3050 125 
z
" transform="scale(0.015625)"/>
       <path id="SimHei-61" d="M 2875 125 
L 2275 125 
Q 2225 175 2200 262 
Q 2175 350 2175 475 
Q 2000 275 1750 175 
Q 1500 75 1225 75 
Q 825 75 550 275 
Q 275 475 275 850 
Q 275 1225 525 1450 
Q 775 1675 1300 1750 
Q 1650 1800 1912 1875 
Q 2175 1950 2175 2075 
Q 2175 2225 2062 2375 
Q 1950 2525 1575 2525 
Q 1275 2525 1137 2412 
Q 1000 2300 950 2100 
L 400 2100 
Q 450 2500 762 2737 
Q 1075 2975 1575 2975 
Q 2125 2975 2400 2725 
Q 2675 2475 2675 2025 
L 2675 650 
Q 2675 500 2725 375 
Q 2775 250 2875 125 
z
M 2175 1050 
L 2175 1550 
Q 2025 1500 1887 1462 
Q 1750 1425 1425 1375 
Q 1050 1325 937 1200 
Q 825 1075 825 900 
Q 825 750 937 637 
Q 1050 525 1275 525 
Q 1500 525 1762 650 
Q 2025 775 2175 1050 
z
" transform="scale(0.015625)"/>
       <path id="SimHei-73" d="M 2750 900 
Q 2750 500 2437 287 
Q 2125 75 1650 75 
Q 1050 75 725 312 
Q 400 550 400 1000 
L 900 1000 
Q 900 700 1112 600 
Q 1325 500 1625 500 
Q 1925 500 2075 612 
Q 2225 725 2225 900 
Q 2225 1025 2100 1150 
Q 1975 1275 1475 1350 
Q 900 1425 687 1637 
Q 475 1850 475 2200 
Q 475 2500 762 2737 
Q 1050 2975 1600 2975 
Q 2100 2975 2387 2750 
Q 2675 2525 2675 2150 
L 2175 2150 
Q 2175 2375 2012 2462 
Q 1850 2550 1600 2550 
Q 1275 2550 1137 2437 
Q 1000 2325 1000 2175 
Q 1000 2000 1125 1900 
Q 1250 1800 1650 1750 
Q 2300 1650 2525 1437 
Q 2750 1225 2750 900 
z
" transform="scale(0.015625)"/>
      </defs>
      <use xlink:href="#SimHei-6d"/>
      <use xlink:href="#SimHei-65" x="50"/>
      <use xlink:href="#SimHei-61" x="100"/>
      <use xlink:href="#SimHei-73" x="150"/>
      <use xlink:href="#SimHei-75" x="200"/>
      <use xlink:href="#SimHei-72" x="250"/>
      <use xlink:href="#SimHei-65" x="300"/>
     </g>
    </g>
    <g id="line2d_26">
     <path d="M 66.6 80.472 
L 76.6 80.472 
L 86.6 80.472 
" style="fill: none; stroke: #2ca02c; stroke-width: 1.5; stroke-linecap: square"/>
    </g>
    <g id="text_21">
     <!-- EKF -->
     <g transform="translate(94.6 83.972) scale(0.1 -0.1)">
      <defs>
       <path id="SimHei-45" d="M 2900 125 
L 350 125 
L 350 4400 
L 2775 4400 
L 2775 3925 
L 925 3925 
L 925 2600 
L 2625 2600 
L 2625 2125 
L 925 2125 
L 925 600 
L 2900 600 
L 2900 125 
z
" transform="scale(0.015625)"/>
       <path id="SimHei-4b" d="M 3050 125 
L 2400 125 
L 1250 2250 
L 850 1725 
L 850 125 
L 275 125 
L 275 4400 
L 850 4400 
L 850 2550 
L 2275 4400 
L 2950 4400 
L 1625 2725 
L 3050 125 
z
" transform="scale(0.015625)"/>
       <path id="SimHei-46" d="M 2925 3925 
L 875 3925 
L 875 2525 
L 2425 2525 
L 2425 2050 
L 875 2050 
L 875 125 
L 300 125 
L 300 4400 
L 2925 4400 
L 2925 3925 
z
" transform="scale(0.015625)"/>
      </defs>
      <use xlink:href="#SimHei-45"/>
      <use xlink:href="#SimHei-4b" x="50"/>
      <use xlink:href="#SimHei-46" x="100"/>
     </g>
    </g>
    <g id="line2d_27">
     <path d="M 149.6 53.972 
L 159.6 53.972 
L 169.6 53.972 
" style="fill: none; stroke: #d62728; stroke-width: 1.5; stroke-linecap: square"/>
    </g>
    <g id="text_22">
     <!-- CKF -->
     <g transform="translate(177.6 57.472) scale(0.1 -0.1)">
      <defs>
       <path id="SimHei-43" d="M 2975 1825 
Q 2950 875 2575 475 
Q 2200 75 1675 75 
Q 1075 75 650 562 
Q 225 1050 225 2125 
Q 225 3300 637 3875 
Q 1050 4450 1700 4450 
Q 2250 4450 2612 4037 
Q 2975 3625 2950 2875 
L 2400 2875 
Q 2400 3425 2225 3700 
Q 2050 3975 1700 3975 
Q 1300 3975 1062 3562 
Q 825 3150 825 2175 
Q 825 1275 1062 912 
Q 1300 550 1675 550 
Q 1950 550 2175 812 
Q 2400 1075 2400 1825 
L 2975 1825 
z
" transform="scale(0.015625)"/>
      </defs>
      <use xlink:href="#SimHei-43"/>
      <use xlink:href="#SimHei-4b" x="50"/>
      <use xlink:href="#SimHei-46" x="100"/>
     </g>
    </g>
    <g id="line2d_28">
     <path d="M 149.6 67.222 
L 159.6 67.222 
L 169.6 67.222 
" style="fill: none; stroke: #9467bd; stroke-width: 1.5; stroke-linecap: square"/>
    </g>
    <g id="text_23">
     <!-- UKF -->
     <g transform="translate(177.6 70.722) scale(0.1 -0.1)">
      <defs>
       <path id="SimHei-55" d="M 2875 1375 
Q 2875 775 2562 425 
Q 2250 75 1575 75 
Q 900 75 587 425 
Q 275 775 275 1375 
L 275 4400 
L 850 4400 
L 850 1375 
Q 850 950 1050 750 
Q 1250 550 1575 550 
Q 1900 550 2100 750 
Q 2300 950 2300 1375 
L 2300 4400 
L 2875 4400 
L 2875 1375 
z
" transform="scale(0.015625)"/>
      </defs>
      <use xlink:href="#SimHei-55"/>
      <use xlink:href="#SimHei-4b" x="50"/>
      <use xlink:href="#SimHei-46" x="100"/>
     </g>
    </g>
    <g id="line2d_29">
     <path d="M 149.6 80.472 
L 159.6 80.472 
L 169.6 80.472 
" style="fill: none; stroke: #8c564b; stroke-width: 1.5; stroke-linecap: square"/>
    </g>
    <g id="text_24">
     <!-- PF@point=10 -->
     <g transform="translate(177.6 83.972) scale(0.1 -0.1)">
      <defs>
       <path id="SimHei-50" d="M 2950 3100 
Q 2950 2500 2600 2150 
Q 2250 1800 1625 1800 
L 900 1800 
L 900 125 
L 325 125 
L 325 4400 
L 1625 4400 
Q 2250 4400 2600 4050 
Q 2950 3700 2950 3100 
z
M 2375 3100 
Q 2375 3575 2150 3750 
Q 1925 3925 1475 3925 
L 900 3925 
L 900 2275 
L 1475 2275 
Q 1925 2275 2150 2450 
Q 2375 2625 2375 3100 
z
" transform="scale(0.015625)"/>
       <path id="SimHei-40" d="M 3000 2650 
Q 3000 1725 2737 1375 
Q 2475 1025 2175 1025 
Q 2050 1025 1950 1100 
Q 1850 1175 1800 1325 
Q 1675 1175 1550 1100 
Q 1425 1025 1300 1025 
Q 1050 1025 875 1237 
Q 700 1450 700 1850 
Q 700 2525 1050 3050 
Q 1400 3575 1725 3575 
Q 1850 3575 1900 3550 
Q 1950 3525 2025 3375 
L 2150 3575 
L 2425 3575 
L 2075 1675 
Q 2050 1525 2100 1450 
Q 2150 1375 2250 1375 
Q 2525 1375 2637 1712 
Q 2750 2050 2750 2650 
Q 2750 3400 2462 3825 
Q 2175 4250 1700 4250 
Q 1175 4250 775 3737 
Q 375 3225 375 2175 
Q 375 1125 750 700 
Q 1125 275 1650 275 
Q 1850 275 2075 387 
Q 2300 500 2425 725 
L 2550 550 
Q 2400 350 2162 212 
Q 1925 75 1650 75 
Q 1025 75 575 562 
Q 125 1050 125 2175 
Q 125 3300 600 3875 
Q 1075 4450 1700 4450 
Q 2300 4450 2650 3950 
Q 3000 3450 3000 2650 
z
M 1950 2975 
Q 1975 3125 1925 3212 
Q 1875 3300 1750 3300 
Q 1550 3300 1325 2837 
Q 1100 2375 1100 1875 
Q 1100 1600 1187 1475 
Q 1275 1350 1400 1350 
Q 1550 1350 1625 1475 
Q 1700 1600 1725 1750 
L 1950 2975 
z
" transform="scale(0.015625)"/>
       <path id="SimHei-70" d="M 2825 1525 
Q 2825 800 2475 425 
Q 2125 50 1625 50 
Q 1350 50 1150 162 
Q 950 275 800 500 
L 800 -800 
L 300 -800 
L 300 2925 
L 800 2925 
L 800 2550 
Q 950 2775 1150 2875 
Q 1350 2975 1625 2975 
Q 2125 2975 2475 2612 
Q 2825 2250 2825 1525 
z
M 2275 1525 
Q 2275 2000 2087 2262 
Q 1900 2525 1525 2525 
Q 1225 2525 1012 2262 
Q 800 2000 800 1525 
Q 800 1050 1012 775 
Q 1225 500 1525 500 
Q 1900 500 2087 775 
Q 2275 1050 2275 1525 
z
" transform="scale(0.015625)"/>
       <path id="SimHei-6f" d="M 2925 1525 
Q 2925 875 2525 475 
Q 2125 75 1575 75 
Q 1025 75 625 475 
Q 225 875 225 1525 
Q 225 2175 625 2575 
Q 1025 2975 1575 2975 
Q 2125 2975 2525 2575 
Q 2925 2175 2925 1525 
z
M 2375 1525 
Q 2375 2025 2125 2275 
Q 1875 2525 1575 2525 
Q 1275 2525 1025 2275 
Q 775 2025 775 1525 
Q 775 1025 1025 775 
Q 1275 525 1575 525 
Q 1875 525 2125 775 
Q 2375 1025 2375 1525 
z
" transform="scale(0.015625)"/>
       <path id="SimHei-69" d="M 1800 3725 
L 1300 3725 
L 1300 4375 
L 1800 4375 
L 1800 3725 
z
M 1800 125 
L 1300 125 
L 1300 2925 
L 1800 2925 
L 1800 125 
z
" transform="scale(0.015625)"/>
       <path id="SimHei-6e" d="M 2800 125 
L 2300 125 
L 2300 1925 
Q 2300 2225 2150 2400 
Q 2000 2575 1750 2575 
Q 1425 2575 1137 2237 
Q 850 1900 850 1400 
L 850 125 
L 350 125 
L 350 2925 
L 850 2925 
L 850 2400 
Q 1050 2675 1287 2825 
Q 1525 2975 1900 2975 
Q 2350 2975 2575 2725 
Q 2800 2475 2800 2100 
L 2800 125 
z
" transform="scale(0.015625)"/>
       <path id="SimHei-3d" d="M 2975 2900 
L 125 2900 
L 125 3300 
L 2975 3300 
L 2975 2900 
z
M 2975 1375 
L 125 1375 
L 125 1775 
L 2975 1775 
L 2975 1375 
z
" transform="scale(0.015625)"/>
      </defs>
      <use xlink:href="#SimHei-50"/>
      <use xlink:href="#SimHei-46" x="50"/>
      <use xlink:href="#SimHei-40" x="100"/>
      <use xlink:href="#SimHei-70" x="150"/>
      <use xlink:href="#SimHei-6f" x="200"/>
      <use xlink:href="#SimHei-69" x="250"/>
      <use xlink:href="#SimHei-6e" x="300"/>
      <use xlink:href="#SimHei-74" x="350"/>
      <use xlink:href="#SimHei-3d" x="400"/>
      <use xlink:href="#SimHei-31" x="450"/>
      <use xlink:href="#SimHei-30" x="500"/>
     </g>
    </g>
    <g id="line2d_30">
     <path d="M 252.6 53.972 
L 262.6 53.972 
L 272.6 53.972 
" style="fill: none; stroke: #e377c2; stroke-width: 1.5; stroke-linecap: square"/>
    </g>
    <g id="text_25">
     <!-- ESIF@$\delta=200$ -->
     <g transform="translate(280.6 57.472) scale(0.1 -0.1)">
      <defs>
       <path id="SimHei-53" d="M 2900 1325 
Q 2900 750 2537 412 
Q 2175 75 1550 75 
Q 925 75 575 425 
Q 225 775 225 1300 
L 225 1475 
L 800 1475 
L 800 1325 
Q 800 950 1025 750 
Q 1250 550 1550 550 
Q 1950 550 2137 762 
Q 2325 975 2325 1275 
Q 2325 1525 2100 1737 
Q 1875 1950 1450 2125 
Q 850 2350 587 2625 
Q 325 2900 325 3275 
Q 325 3800 687 4125 
Q 1050 4450 1550 4450 
Q 2200 4450 2487 4062 
Q 2775 3675 2775 3225 
L 2200 3225 
Q 2225 3500 2050 3725 
Q 1875 3950 1550 3950 
Q 1250 3950 1075 3787 
Q 900 3625 900 3350 
Q 900 3125 1037 2962 
Q 1175 2800 1750 2575 
Q 2300 2350 2600 2037 
Q 2900 1725 2900 1325 
z
" transform="scale(0.015625)"/>
       <path id="SimHei-49" d="M 1850 125 
L 1275 125 
L 1275 4400 
L 1850 4400 
L 1850 125 
z
" transform="scale(0.015625)"/>
       <path id="DejaVuSans-Oblique-3b4" d="M 3472 4053 
Q 3197 4272 2450 4272 
Q 1659 4272 1588 3906 
Q 1531 3619 2328 3469 
Q 2953 3353 3253 3003 
Q 3616 2581 3447 1716 
Q 3284 888 2763 400 
Q 2238 -91 1488 -91 
Q 741 -91 406 400 
Q 72 888 241 1747 
Q 363 2384 891 2900 
Q 1097 3100 1353 3213 
Q 913 3459 1000 3900 
Q 1166 4750 2544 4750 
Q 3234 4750 3566 4531 
L 3472 4053 
z
M 1753 3056 
Q 1525 2966 1306 2738 
Q 969 2384 847 1747 
Q 722 1113 919 756 
Q 1119 397 1584 397 
Q 2044 397 2381 759 
Q 2722 1122 2838 1716 
Q 2956 2338 2731 2638 
Q 2491 2959 2103 2994 
Q 1906 3013 1753 3056 
z
" transform="scale(0.015625)"/>
       <path id="DejaVuSans-3d" d="M 678 2906 
L 4684 2906 
L 4684 2381 
L 678 2381 
L 678 2906 
z
M 678 1631 
L 4684 1631 
L 4684 1100 
L 678 1100 
L 678 1631 
z
" transform="scale(0.015625)"/>
       <path id="DejaVuSans-32" d="M 1228 531 
L 3431 531 
L 3431 0 
L 469 0 
L 469 531 
Q 828 903 1448 1529 
Q 2069 2156 2228 2338 
Q 2531 2678 2651 2914 
Q 2772 3150 2772 3378 
Q 2772 3750 2511 3984 
Q 2250 4219 1831 4219 
Q 1534 4219 1204 4116 
Q 875 4013 500 3803 
L 500 4441 
Q 881 4594 1212 4672 
Q 1544 4750 1819 4750 
Q 2544 4750 2975 4387 
Q 3406 4025 3406 3419 
Q 3406 3131 3298 2873 
Q 3191 2616 2906 2266 
Q 2828 2175 2409 1742 
Q 1991 1309 1228 531 
z
" transform="scale(0.015625)"/>
       <path id="DejaVuSans-30" d="M 2034 4250 
Q 1547 4250 1301 3770 
Q 1056 3291 1056 2328 
Q 1056 1369 1301 889 
Q 1547 409 2034 409 
Q 2525 409 2770 889 
Q 3016 1369 3016 2328 
Q 3016 3291 2770 3770 
Q 2525 4250 2034 4250 
z
M 2034 4750 
Q 2819 4750 3233 4129 
Q 3647 3509 3647 2328 
Q 3647 1150 3233 529 
Q 2819 -91 2034 -91 
Q 1250 -91 836 529 
Q 422 1150 422 2328 
Q 422 3509 836 4129 
Q 1250 4750 2034 4750 
z
" transform="scale(0.015625)"/>
      </defs>
      <use xlink:href="#SimHei-45" transform="translate(0 0.78125)"/>
      <use xlink:href="#SimHei-53" transform="translate(50 0.78125)"/>
      <use xlink:href="#SimHei-49" transform="translate(100 0.78125)"/>
      <use xlink:href="#SimHei-46" transform="translate(150 0.78125)"/>
      <use xlink:href="#SimHei-40" transform="translate(200 0.78125)"/>
      <use xlink:href="#DejaVuSans-Oblique-3b4" transform="translate(250 0.78125)"/>
      <use xlink:href="#DejaVuSans-3d" transform="translate(330.664062 0.78125)"/>
      <use xlink:href="#DejaVuSans-32" transform="translate(433.935547 0.78125)"/>
      <use xlink:href="#DejaVuSans-30" transform="translate(497.558594 0.78125)"/>
      <use xlink:href="#DejaVuSans-30" transform="translate(561.181641 0.78125)"/>
     </g>
    </g>
    <g id="line2d_31">
     <path d="M 252.6 67.222 
L 262.6 67.222 
L 272.6 67.222 
" style="fill: none; stroke: #7f7f7f; stroke-width: 1.5; stroke-linecap: square"/>
    </g>
    <g id="text_26">
     <!-- AESIF -->
     <g transform="translate(280.6 70.722) scale(0.1 -0.1)">
      <defs>
       <path id="SimHei-41" d="M 3075 125 
L 2475 125 
L 2125 1450 
L 1025 1450 
L 675 125 
L 75 125 
L 1325 4450 
L 1825 4450 
L 3075 125 
z
M 2000 1925 
L 1600 3450 
L 1550 3450 
L 1150 1925 
L 2000 1925 
z
" transform="scale(0.015625)"/>
      </defs>
      <use xlink:href="#SimHei-41"/>
      <use xlink:href="#SimHei-45" x="50"/>
      <use xlink:href="#SimHei-53" x="100"/>
      <use xlink:href="#SimHei-49" x="150"/>
      <use xlink:href="#SimHei-46" x="200"/>
     </g>
    </g>
   </g>
  </g>
 </g>
 <defs>
  <clipPath id="p5bb0b2c3f1">
   <rect x="57.6" y="41.472" width="357.12" height="266.112"/>
  </clipPath>
 </defs>
</svg>
